<?xml version="1.0"?>
<svg xmlns="http://www.w3.org/2000/svg" xmlns:xlink="http://www.w3.org/1999/xlink" xmlns:svgjs="http://svgjs.com/svgjs" version="1.1" width="512" height="512" x="0" y="0" viewBox="0 0 32 32" style="enable-background:new 0 0 512 512" xml:space="preserve" class=""><g><path d="m16 1a15 15 0 1 0 15 15 15.017 15.017 0 0 0 -15-15zm1 12a1 1 0 0 1 0 2h-4.924a6.617 6.617 0 0 0 0 2h4.924a1 1 0 0 1 0 2h-4.318a4.97 4.97 0 0 0 4.362 3 4.852 4.852 0 0 0 4.1-2.514 1 1 0 0 1 1.716 1.028 6.833 6.833 0 0 1 -5.816 3.486 7.119 7.119 0 0 1 -6.525-5h-2.519a1 1 0 0 1 0-2h2.061a8.227 8.227 0 0 1 0-2h-2.061a1 1 0 0 1 0-2h2.519a7.119 7.119 0 0 1 6.525-5 6.833 6.833 0 0 1 5.814 3.486 1 1 0 0 1 -1.716 1.028 4.852 4.852 0 0 0 -4.098-2.514 4.97 4.97 0 0 0 -4.362 3z" fill="#666666" data-original="#000000" class=""/></g></svg>
