<?xml version="1.0" encoding="UTF-8" standalone="no"?>
<svg
   xmlns:dc="http://purl.org/dc/elements/1.1/"
   xmlns:cc="http://creativecommons.org/ns#"
   xmlns:rdf="http://www.w3.org/1999/02/22-rdf-syntax-ns#"
   xmlns:svg="http://www.w3.org/2000/svg"
   xmlns="http://www.w3.org/2000/svg"
   xmlns:sodipodi="http://sodipodi.sourceforge.net/DTD/sodipodi-0.dtd"
   xmlns:inkscape="http://www.inkscape.org/namespaces/inkscape"
   version="1.1"
   width="512"
   height="512"
   x="0"
   y="0"
   viewBox="0 0 512 512"
   style="enable-background:new 0 0 512 512"
   xml:space="preserve"
   class=""
   id="svg16"
   sodipodi:docname="mapaareas.svg"
   inkscape:version="0.92.3 (2405546, 2018-03-11)"><metadata
     id="metadata22"><rdf:RDF><cc:Work
         rdf:about=""><dc:format>image/svg+xml</dc:format><dc:type
           rdf:resource="http://purl.org/dc/dcmitype/StillImage" /></cc:Work></rdf:RDF></metadata><defs
     id="defs20" /><sodipodi:namedview
     pagecolor="#ffffff"
     bordercolor="#666666"
     borderopacity="1"
     objecttolerance="10"
     gridtolerance="10"
     guidetolerance="10"
     inkscape:pageopacity="0"
     inkscape:pageshadow="2"
     inkscape:window-width="816"
     inkscape:window-height="480"
     id="namedview18"
     showgrid="false"
     inkscape:zoom="0.4609375"
     inkscape:cx="256"
     inkscape:cy="256"
     inkscape:window-x="0"
     inkscape:window-y="0"
     inkscape:window-maximized="0"
     inkscape:current-layer="svg16" /><g
     id="g14"><path
       d="m256 512c-141.159 0-256-114.841-256-256s114.841-256 256-256 256 114.841 256 256-114.841 256-256 256z"
       fill="#ff0000"
       data-original="#186fa2"
       style="fill:#666666;fill-opacity:1"
       class=""
       id="path2" /><path
       d="m256 0c-.363 0-.722.012-1.084.014v511.973c.362.002.722.014 1.084.014 141.159 0 256-114.841 256-256s-114.841-256.001-256-256.001z"
       fill="#fb0000"
       data-original="#063651"
       style="fill:#666666;fill-opacity:1"
       class=""
       id="path4" /><path
       d="m256 425.249c-93.324 0-169.249-75.925-169.249-169.249s75.925-169.249 169.249-169.249 169.249 75.925 169.249 169.249-75.925 169.249-169.249 169.249z"
       fill="#ffffff"
       data-original="#ffffff"
       style=""
       class=""
       id="path6" /><path
       d="m256 86.751c-.363 0-.722.011-1.084.014v338.471c.362.002.722.014 1.084.014 93.324 0 169.249-75.925 169.249-169.249s-75.925-169.25-169.249-169.25z"
       fill="#ffffff"
       data-original="#fde4c3"
       style=""
       class=""
       id="path8" /><path
       d="m256 337.573c-44.98 0-81.572-36.593-81.572-81.573s36.592-81.573 81.572-81.573 81.572 36.593 81.572 81.573-36.593 81.573-81.572 81.573z"
       fill="#000000"
       data-original="#fb8785"
       style="fill:#666666;fill-opacity:1"
       class=""
       id="path10" /><path
       d="m256 174.427c-.363 0-.722.023-1.084.028v163.09c.363.005.721.028 1.084.028 44.979 0 81.572-36.593 81.572-81.573s-36.593-81.573-81.572-81.573z"
       fill="#000000"
       data-original="#f92f3e"
       style="fill:#666666;fill-opacity:1"
       class=""
       id="path12" /></g></svg>