<?xml version="1.0" encoding="UTF-8" standalone="no"?>
<svg
   xmlns:dc="http://purl.org/dc/elements/1.1/"
   xmlns:cc="http://creativecommons.org/ns#"
   xmlns:rdf="http://www.w3.org/1999/02/22-rdf-syntax-ns#"
   xmlns:svg="http://www.w3.org/2000/svg"
   xmlns="http://www.w3.org/2000/svg"
   xmlns:sodipodi="http://sodipodi.sourceforge.net/DTD/sodipodi-0.dtd"
   xmlns:inkscape="http://www.inkscape.org/namespaces/inkscape"
   version="1.1"
   width="512"
   height="512"
   x="0"
   y="0"
   viewBox="0 0 512 512"
   style="enable-background:new 0 0 512 512"
   xml:space="preserve"
   class=""
   id="svg42"
   sodipodi:docname="mapacerrarventana.svg"
   inkscape:version="0.92.3 (2405546, 2018-03-11)"><metadata
     id="metadata48"><rdf:RDF><cc:Work
         rdf:about=""><dc:format>image/svg+xml</dc:format><dc:type
           rdf:resource="http://purl.org/dc/dcmitype/StillImage" /></cc:Work></rdf:RDF></metadata><defs
     id="defs46" /><sodipodi:namedview
     pagecolor="#ffffff"
     bordercolor="#666666"
     borderopacity="1"
     objecttolerance="10"
     gridtolerance="10"
     guidetolerance="10"
     inkscape:pageopacity="0"
     inkscape:pageshadow="2"
     inkscape:window-width="816"
     inkscape:window-height="480"
     id="namedview44"
     showgrid="false"
     inkscape:zoom="0.4609375"
     inkscape:cx="256"
     inkscape:cy="256"
     inkscape:window-x="0"
     inkscape:window-y="0"
     inkscape:window-maximized="0"
     inkscape:current-layer="svg42" /><g
     id="g40">
<path
   style="fill:#666666;fill-opacity:1"
   d="M257,0C116.3,0,0,114.3,0,255s116.3,257,257,257s255-116.3,255-257S397.7,0,257,0z"
   fill="#ff0000"
   data-original="#fd003a"
   class=""
   id="path2" />
<path
   style="fill:#666666;fill-opacity:1"
   d="M512,255c0,140.7-114.3,257-255,257V0C397.7,0,512,114.3,512,255z"
   fill="#ff0000"
   data-original="#dd0030"
   class=""
   id="path4" />
<path
   style="fill:#ffffff;fill-opacity:1"
   d="M373.7,329.099c11.7,11.7,11.7,30.901,0,42.601c-11.7,11.699-30.601,11.699-42.601,0L257,297.299  L180.901,371.7c-11.7,11.699-30.901,11.699-42.601,0c-11.7-11.7-11.7-30.901,0-42.601L214.701,255L138.3,180.899  c-11.7-11.699-11.7-30.899,0-42.599s30.601-11.7,42.601,0L257,212.699l74.099-74.399c12.001-11.7,30.901-11.7,42.601,0  s11.7,30.901,0,42.599L299.299,255L373.7,329.099z"
   fill="#000000"
   data-original="#e1e4fb"
   class=""
   id="path6" />
<path
   style="fill:#ffffff;fill-opacity:1"
   d="M373.7,329.099c11.7,11.7,11.7,30.901,0,42.601c-11.7,11.699-30.601,11.699-42.601,0L257,297.299  v-84.6l74.099-74.399c12.001-11.7,30.901-11.7,42.601,0s11.7,30.901,0,42.599L299.299,255L373.7,329.099z"
   fill="#000000"
   data-original="#c5c9f7"
   class=""
   id="path8" />
<g
   id="g10">
</g>
<g
   id="g12">
</g>
<g
   id="g14">
</g>
<g
   id="g16">
</g>
<g
   id="g18">
</g>
<g
   id="g20">
</g>
<g
   id="g22">
</g>
<g
   id="g24">
</g>
<g
   id="g26">
</g>
<g
   id="g28">
</g>
<g
   id="g30">
</g>
<g
   id="g32">
</g>
<g
   id="g34">
</g>
<g
   id="g36">
</g>
<g
   id="g38">
</g>
</g></svg>