<?xml version="1.0" encoding="UTF-8" standalone="no"?>
<svg
   xmlns:dc="http://purl.org/dc/elements/1.1/"
   xmlns:cc="http://creativecommons.org/ns#"
   xmlns:rdf="http://www.w3.org/1999/02/22-rdf-syntax-ns#"
   xmlns:svg="http://www.w3.org/2000/svg"
   xmlns="http://www.w3.org/2000/svg"
   xmlns:sodipodi="http://sodipodi.sourceforge.net/DTD/sodipodi-0.dtd"
   xmlns:inkscape="http://www.inkscape.org/namespaces/inkscape"
   version="1.1"
   width="512"
   height="512"
   x="0"
   y="0"
   viewBox="0 0 612 612"
   style="enable-background:new 0 0 512 512"
   xml:space="preserve"
   id="svg41"
   sodipodi:docname="mapatest2,svg.svg"
   inkscape:version="0.92.3 (2405546, 2018-03-11)"><metadata
     id="metadata47"><rdf:RDF><cc:Work
         rdf:about=""><dc:format>image/svg+xml</dc:format><dc:type
           rdf:resource="http://purl.org/dc/dcmitype/StillImage" /><dc:title></dc:title></cc:Work></rdf:RDF></metadata><defs
     id="defs45" /><sodipodi:namedview
     pagecolor="#ffffff"
     bordercolor="#666666"
     borderopacity="1"
     objecttolerance="10"
     gridtolerance="10"
     guidetolerance="10"
     inkscape:pageopacity="0"
     inkscape:pageshadow="2"
     inkscape:window-width="816"
     inkscape:window-height="480"
     id="namedview43"
     showgrid="false"
     inkscape:zoom="0.4609375"
     inkscape:cx="256"
     inkscape:cy="256"
     inkscape:window-x="0"
     inkscape:window-y="0"
     inkscape:window-maximized="0"
     inkscape:current-layer="svg41" /><g
     id="g39">
<g
   id="g7">
	<g
   id="_x31_0_21_">
		<g
   id="g4">
			<path
   d="M63.311,73.862C28.342,73.862,0,102.204,0,137.172s28.342,63.311,63.311,63.311c34.968,0,63.31-28.342,63.31-63.311     S98.279,73.862,63.311,73.862z M63.311,242.689C28.342,242.689,0,271.032,0,306c0,34.969,28.342,63.311,63.311,63.311     c34.968,0,63.31-28.342,63.31-63.311C126.621,271.032,98.279,242.689,63.311,242.689z M63.311,411.518     C28.342,411.518,0,439.859,0,474.827c0,34.969,28.342,63.311,63.311,63.311c34.968,0,63.31-28.342,63.31-63.311     C126.621,439.859,98.279,411.518,63.311,411.518z M232.138,179.379h337.655c23.319,0,42.207-18.888,42.207-42.207     s-18.888-42.207-42.207-42.207H232.138c-23.319,0-42.207,18.888-42.207,42.207S208.819,179.379,232.138,179.379z      M569.793,263.793H232.138c-23.319,0-42.207,18.888-42.207,42.207s18.888,42.207,42.207,42.207h337.655     C593.112,348.207,612,329.319,612,306S593.112,263.793,569.793,263.793z M569.793,432.621H232.138     c-23.319,0-42.207,18.887-42.207,42.206s18.888,42.207,42.207,42.207h337.655c23.319,0,42.207-18.888,42.207-42.207     S593.112,432.621,569.793,432.621z"
   fill="#ff0000"
   data-original="#000000"
   style="fill:#666666;fill-opacity:1"
   id="path2" />
		</g>
	</g>
</g>
<g
   id="g9">
</g>
<g
   id="g11">
</g>
<g
   id="g13">
</g>
<g
   id="g15">
</g>
<g
   id="g17">
</g>
<g
   id="g19">
</g>
<g
   id="g21">
</g>
<g
   id="g23">
</g>
<g
   id="g25">
</g>
<g
   id="g27">
</g>
<g
   id="g29">
</g>
<g
   id="g31">
</g>
<g
   id="g33">
</g>
<g
   id="g35">
</g>
<g
   id="g37">
</g>
</g></svg>