<?xml version="1.0" encoding="UTF-8" standalone="no"?>
<svg
   xmlns:dc="http://purl.org/dc/elements/1.1/"
   xmlns:cc="http://creativecommons.org/ns#"
   xmlns:rdf="http://www.w3.org/1999/02/22-rdf-syntax-ns#"
   xmlns:svg="http://www.w3.org/2000/svg"
   xmlns="http://www.w3.org/2000/svg"
   xmlns:sodipodi="http://sodipodi.sourceforge.net/DTD/sodipodi-0.dtd"
   xmlns:inkscape="http://www.inkscape.org/namespaces/inkscape"
   version="1.1"
   width="512"
   height="512"
   x="0"
   y="0"
   viewBox="0 0 32.071 32.071"
   style="enable-background:new 0 0 512 512"
   xml:space="preserve"
   class=""
   id="svg38"
   sodipodi:docname="mapaminimizar.svg"
   inkscape:version="0.92.3 (2405546, 2018-03-11)"><metadata
     id="metadata44"><rdf:RDF><cc:Work
         rdf:about=""><dc:format>image/svg+xml</dc:format><dc:type
           rdf:resource="http://purl.org/dc/dcmitype/StillImage" /></cc:Work></rdf:RDF></metadata><defs
     id="defs42" /><sodipodi:namedview
     pagecolor="#ffffff"
     bordercolor="#666666"
     borderopacity="1"
     objecttolerance="10"
     gridtolerance="10"
     guidetolerance="10"
     inkscape:pageopacity="0"
     inkscape:pageshadow="2"
     inkscape:window-width="816"
     inkscape:window-height="480"
     id="namedview40"
     showgrid="false"
     inkscape:zoom="0.4609375"
     inkscape:cx="256"
     inkscape:cy="256"
     inkscape:window-x="0"
     inkscape:window-y="0"
     inkscape:window-maximized="0"
     inkscape:current-layer="svg38" /><g
     id="g36">
<g
   id="g4">
	<path
   d="M31.436,31.435c-0.846,0.848-2.217,0.848-3.062,0l-6.168-6.168l-0.254,3.13c-0.045,0.533-0.276,1.008-0.627,1.357   c-0.435,0.434-1.05,0.682-1.707,0.627c-1.192-0.097-2.082-1.143-1.983-2.334l0.635-7.797c0.088-1.06,0.926-1.896,1.981-1.984   l7.798-0.635c1.19-0.095,2.237,0.791,2.334,1.985c0.098,1.189-0.791,2.234-1.982,2.334l-3.129,0.253l6.168,6.168   C32.281,29.219,32.281,30.591,31.436,31.435z M12.454,1.69c-0.658-0.054-1.272,0.193-1.707,0.627   c-0.352,0.351-0.582,0.822-0.627,1.354L9.864,6.802L3.698,0.636C2.852-0.212,1.48-0.211,0.636,0.634   c-0.846,0.848-0.846,2.219,0,3.064l6.166,6.167L3.673,10.12c-1.191,0.098-2.08,1.143-1.982,2.334   c0.096,1.193,1.141,2.08,2.334,1.984l7.797-0.634c1.055-0.086,1.896-0.927,1.982-1.985l0.635-7.797   C14.534,2.833,13.646,1.788,12.454,1.69z M11.819,18.269l-7.797-0.636c-1.191-0.096-2.236,0.792-2.334,1.984   c-0.055,0.659,0.193,1.271,0.627,1.707c0.352,0.35,0.826,0.583,1.357,0.628l3.131,0.253l-6.167,6.169   c-0.846,0.846-0.846,2.217,0,3.062c0.846,0.848,2.217,0.849,3.062,0l6.168-6.166l0.254,3.128c0.099,1.192,1.144,2.08,2.334,1.983   c1.195-0.098,2.08-1.143,1.984-2.334l-0.635-7.797C13.716,19.196,12.877,18.355,11.819,18.269z M20.25,13.805l7.798,0.635   c1.19,0.097,2.235-0.791,2.334-1.983c0.055-0.66-0.193-1.273-0.627-1.708c-0.353-0.35-0.822-0.582-1.355-0.627l-3.131-0.255   L31.435,3.7c0.848-0.846,0.848-2.217,0.002-3.062c-0.848-0.847-2.219-0.847-3.064,0l-6.166,6.167L21.95,3.676   c-0.098-1.193-1.143-2.081-2.334-1.983c-1.191,0.097-2.08,1.142-1.982,2.333l0.633,7.798C18.352,12.878,19.191,13.716,20.25,13.805   z"
   fill="#ff0000"
   data-original="#000000"
   style="fill:#666666;fill-opacity:1"
   class=""
   id="path2" />
</g>
<g
   id="g6">
</g>
<g
   id="g8">
</g>
<g
   id="g10">
</g>
<g
   id="g12">
</g>
<g
   id="g14">
</g>
<g
   id="g16">
</g>
<g
   id="g18">
</g>
<g
   id="g20">
</g>
<g
   id="g22">
</g>
<g
   id="g24">
</g>
<g
   id="g26">
</g>
<g
   id="g28">
</g>
<g
   id="g30">
</g>
<g
   id="g32">
</g>
<g
   id="g34">
</g>
</g></svg>