<?xml version="1.0" encoding="UTF-8" standalone="no"?>
<svg
   xmlns:dc="http://purl.org/dc/elements/1.1/"
   xmlns:cc="http://creativecommons.org/ns#"
   xmlns:rdf="http://www.w3.org/1999/02/22-rdf-syntax-ns#"
   xmlns:svg="http://www.w3.org/2000/svg"
   xmlns="http://www.w3.org/2000/svg"
   xmlns:sodipodi="http://sodipodi.sourceforge.net/DTD/sodipodi-0.dtd"
   xmlns:inkscape="http://www.inkscape.org/namespaces/inkscape"
   version="1.1"
   width="512"
   height="512"
   x="0"
   y="0"
   viewBox="0 0 49.499 49.499"
   style="enable-background:new 0 0 512 512"
   xml:space="preserve"
   class=""
   id="svg38"
   sodipodi:docname="mapavolver.svg"
   inkscape:version="0.92.3 (2405546, 2018-03-11)"><metadata
     id="metadata44"><rdf:RDF><cc:Work
         rdf:about=""><dc:format>image/svg+xml</dc:format><dc:type
           rdf:resource="http://purl.org/dc/dcmitype/StillImage" /></cc:Work></rdf:RDF></metadata><defs
     id="defs42" /><sodipodi:namedview
     pagecolor="#ffffff"
     bordercolor="#666666"
     borderopacity="1"
     objecttolerance="10"
     gridtolerance="10"
     guidetolerance="10"
     inkscape:pageopacity="0"
     inkscape:pageshadow="2"
     inkscape:window-width="816"
     inkscape:window-height="480"
     id="namedview40"
     showgrid="false"
     inkscape:zoom="0.4609375"
     inkscape:cx="6.5084746"
     inkscape:cy="256"
     inkscape:window-x="0"
     inkscape:window-y="0"
     inkscape:window-maximized="0"
     inkscape:current-layer="svg38" /><g
     id="g36">
<g
   id="g4">
	<path
   style="fill:#666666;fill-opacity:1"
   d="M8.143,10.804C7.473,11.682,7,11.842,7,11.099V9.751c0-1.933-1.567-3.5-3.5-3.5S0,7.818,0,9.751v12   c0,1.933,1.567,3.5,3.5,3.5h12c1.933,0,3.5-1.567,3.5-3.5s-1.567-3.5-3.5-3.5c0,0-0.579,0-1.294,0s-0.916-0.817-0.31-1.74   c2.752-4.187,7.47-6.795,12.569-6.795c8.29,0,15.034,6.744,15.034,15.034c0,8.289-6.744,15.033-15.034,15.033c-2.209,0-4,1.791-4,4   s1.791,4,4,4c12.701,0.001,23.034-10.332,23.034-23.032c0-12.701-10.333-23.034-23.034-23.034   C19.204,1.716,12.445,5.167,8.143,10.804z"
   fill="#e90000"
   data-original="#010002"
   class=""
   id="path2" />
</g>
<g
   id="g6">
</g>
<g
   id="g8">
</g>
<g
   id="g10">
</g>
<g
   id="g12">
</g>
<g
   id="g14">
</g>
<g
   id="g16">
</g>
<g
   id="g18">
</g>
<g
   id="g20">
</g>
<g
   id="g22">
</g>
<g
   id="g24">
</g>
<g
   id="g26">
</g>
<g
   id="g28">
</g>
<g
   id="g30">
</g>
<g
   id="g32">
</g>
<g
   id="g34">
</g>
</g></svg>